PathFileType	4	(X/Y/Z)	45_1_32_p1_0-234_filt_butterworth.trc
DataRate	CameraRate	NumFrames	NumMarkers	Units	OrigDataRate	OrigDataStartFrame	OrigNumFrames
59.0	59.0	7	27	m	59.0	175	234
Frame#	Time	RHip			RKnee			RAnkle			RBigToe			RSmallToe			RHeel			LHip			LKnee			LAnkle			LBigToe			LSmallToe			LHeel			Neck			Head			Nose			RShoulder			RElbow			RWrist			RThumb			RIndex			RPinky			LShoulder			LElbow			LWrist			LThumb			LIndex			LPinky			
		X1	Y1	Z1	X2	Y2	Z2	X3	Y3	Z3	X4	Y4	Z4	X5	Y5	Z5	X6	Y6	Z6	X7	Y7	Z7	X8	Y8	Z8	X9	Y9	Z9	X10	Y10	Z10	X11	Y11	Z11	X12	Y12	Z12	X13	Y13	Z13	X14	Y14	Z14	X15	Y15	Z15	X16	Y16	Z16	X17	Y17	Z17	X18	Y18	Z18	X19	Y19	Z19	X20	Y20	Z20	X21	Y21	Z21	X22	Y22	Z22	X23	Y23	Z23	X24	Y24	Z24	X25	Y25	Z25	X26	Y26	Z26	X27	Y27	Z27	
175	2.9661016949152543	0.560388608901189	0.4215622013623235	0.9224882826605015	0.562570740471849	0.6103500731767254	1.315492367397067	0.5868483434708552	0.7810604015780476	1.6671443906960186	0.5827643180942425	0.6582392208483554	1.7554356597517888	0.6497603391988384	0.6972491777586596	1.7418771967291629	0.5617379881759297	0.9023379162819296	1.7182222989796863	0.34764552050872294	0.4338437082716029	0.9443384857211745	0.37757425846430237	0.6782962626581662	1.350214801461906	0.4040347502861368	0.8166718557712566	1.6961451271061825	0.4287528215402943	0.6568286851129516	1.764460579338724	0.3783827378608023	0.7183159741044536	1.7676832554165531	0.4219914823032015	0.8953250062159737	1.7413876171916924	0.40557744920543565	0.2570919722042066	0.43901269506314733	0.3769397722973096	0.1435188906292786	0.22670231728394866	0.39854397764250993	0.12645910131114255	0.36267044441020374	0.5535437419799832	0.31497321521189503	0.49725201286300036	0.6412264357173745	0.42148024979818344	0.6881251222866042	0.615757833656955	0.21133190800662455	0.8215468510435275	0.5861164857051003	0.0869805414299836	0.9220802623896214	0.6010095078187029	0.07108681536370651	0.929759405159437	0.6319103655247392	0.17912544408238068	0.9278398645614021	0.2527581534608979	0.2806747538929987	0.5137330418231456	0.2026618326043484	0.4118609660022333	0.7314961244996594	0.2409477298175921	0.3349788585709398	0.9633250507364067	0.2835113602733243	0.32113394731867884	1.059558555355891	0.27050067835025193	0.3201932875696109	1.0914055962329217	0.2511464223791279	0.37924268075031303	1.0921782697011264
176	2.983050847457627	0.5586117494299577	0.42801441496092324	0.92083558653668	0.5633649626065845	0.6115609772166241	1.3156606941436881	0.5868398746540548	0.7810807827717465	1.667156026390253	0.5827645628910536	0.6579275413137826	1.7553534863121847	0.649108833517441	0.6938017247755343	1.7418156625085215	0.5617476373307042	0.9024126964781998	1.7182207453759037	0.34581671094776156	0.4422079611338937	0.944337464021691	0.3777481371322635	0.6783746912552199	1.3502155363868853	0.4040033414599271	0.8165399921678935	1.6960155835529858	0.42865466997573753	0.6566688402680262	1.7648999956182045	0.3783848389455748	0.718269364539088	1.767687016751089	0.4219776003674418	0.8952707771844871	1.741394033173802	0.4055477897781848	0.25710445698618883	0.43889288242873514	0.3748657384898604	0.14412751828278092	0.22673283411612916	0.39621448662275627	0.12900094493425018	0.3611767982156011	0.5540969559735438	0.3162244957273754	0.5000294728460749	0.6421069879246438	0.4120379223060191	0.6928842773623987	0.6087938748608497	0.20941072270668787	0.8301084534913394	0.5752663526844554	0.10060768665457459	0.9310390978768717	0.5905484699711597	0.08246058500956698	0.9370827634855623	0.6197171613924704	0.17909103843783747	0.9350853510852178	0.2527611834009782	0.2806578608500907	0.5136665463652739	0.20286791070870577	0.41359059992316305	0.7342533998047606	0.24292047182560977	0.3390562250960269	0.9666629435541645	0.29577600309016694	0.3169101223305802	1.061733371643839	0.28035099055316437	0.3060349455540277	1.0901616100497715	0.2539111587975185	0.37687707862743924	1.0917629224520142
177	3.0	0.5559355009572671	0.4364827191541948	0.9191263602768561	0.5637287675739182	0.6120422569174815	1.3158975210586827	0.5868361531829477	0.781100116313199	1.6671743228127873	0.583121978697636	0.6582314397869258	1.7556344700071513	0.6493050000869258	0.6929145634474174	1.7421652992186827	0.5617629117221268	0.9024183642629326	1.7182189563055832	0.34261445068220536	0.45362144651078706	0.9442426607986331	0.37783397793115536	0.67845794671032	1.3503954486364755	0.40399745807380066	0.8165207324063869	1.6960044679885824	0.42941595021158574	0.6577631006182452	1.7669656086126768	0.378382355642553	0.7183223219976999	1.7677128965535878	0.4219413576679056	0.8951956311261755	1.741414762028829	0.405513794219152	0.2571334538076379	0.4388403231229389	0.3731476393084008	0.142743555595373	0.22728258970677026	0.3941387475602042	0.13226734202770432	0.35897870843872026	0.5542391743332358	0.3165675465620627	0.5010156377662123	0.6394639061489031	0.4038656741040213	0.6977998507415686	0.6021440630215175	0.2108689225808236	0.8387639403678003	0.5621668305368561	0.11119470549375902	0.9389193615334732	0.5745666281320865	0.09686381785146223	0.9464449919603165	0.6071680592284184	0.17958123964632744	0.9478543520966201	0.2527408163045846	0.28067741499584514	0.5136081030175168	0.20367087302574458	0.4152375426027554	0.7370902520122864	0.24613222814234598	0.3424030136262457	0.9696034022277161	0.3105456224339407	0.3134683244042667	1.062163144876903	0.2924479695790277	0.2902712224946609	1.0886796806704067	0.2568929210426381	0.37683555118053946	1.0918812003728957
178	3.016949152542373	0.5527524773819585	0.44333655741158695	0.9172565919436707	0.5636259383714101	0.6119502548890624	1.3160453231025195	0.5868463527987687	0.7811241517906099	1.6671899758862656	0.5842479650108519	0.6603435556857057	1.7565205650293214	0.6501595217542266	0.6945464715013112	1.7426368295876944	0.5617806477164827	0.9024327855380477	1.7182149575717338	0.33833313464634995	0.46751579554525685	0.9431940923839255	0.37778824689208806	0.678219460216026	1.3504273864059766	0.4041251373627941	0.8169065627800294	1.6965240156141261	0.4305242010283895	0.6605349331023069	1.769288500549929	0.37839059321153723	0.7184453686031247	1.7677581787285976	0.42187678441161985	0.8950774174379207	1.741452678134733	0.40548670353636407	0.2571848102084939	0.4388472627159523	0.3719242286325542	0.13968371833154145	0.22828570356087424	0.3924940265233685	0.13481798432150063	0.3574134284183961	0.5535107540309746	0.31529629181481056	0.500995287540507	0.6348221518592974	0.3939520426185429	0.7021351061478587	0.5963383195048731	0.213095403241173	0.8489741097483006	0.5480740380097877	0.11530811645446842	0.9464504589056734	0.5575388667600752	0.11017175709781526	0.957600527284067	0.5951621426842401	0.18161001180309272	0.9658108593790123	0.2527023525809771	0.2807076889667835	0.5136372859137134	0.2052605989032165	0.4151592072261268	0.7389461722498716	0.2508740163186219	0.3464148473550805	0.9717859129898633	0.32391242378004587	0.31286251464757037	1.0610503248908152	0.30418900592132175	0.2804291124409	1.0872380081815758	0.2608716429719076	0.38127950097853036	1.0925038640543496
179	3.0338983050847457	0.5492662111080526	0.44812681042043767	0.914387753006209	0.5635364578344491	0.6116721394369192	1.316030424349953	0.5868758373584966	0.7811817812140998	1.6672047929844476	0.5861632988600131	0.6649022087392825	1.7577691886688867	0.6511873477368777	0.6984008152110179	1.7433346360144721	0.5618044205173724	0.9025046672840542	1.7182107479711002	0.33404659380764545	0.4814772334394529	0.9404289890877917	0.3775305321846397	0.6772904701812903	1.349754244401087	0.4044765168403429	0.8179147421707336	1.6978771833980577	0.4312954994933407	0.6648743150797869	1.7706387247398963	0.3784410880015484	0.7185454269536411	1.7677846838372886	0.4218135348878949	0.8949064268160346	1.7414809341335826	0.40547069776346245	0.25722366282564335	0.43888542332773645	0.371266278707572	0.13600434729462355	0.22944882791425625	0.39097933623420844	0.13566459095033426	0.3569552318788078	0.5515878365627747	0.3119363854796399	0.5009210977536277	0.6309316022788507	0.3817780155994442	0.7055641076842671	0.5918080081326105	0.2156451053080984	0.8608427056484602	0.532561383681103	0.11714714207225244	0.9552194237529331	0.5443777462919102	0.1194873922224556	0.9696783426479265	0.5833533106660396	0.18464904269785862	0.9856407924423353	0.25265783266413905	0.2807782521961626	0.5139847705368283	0.20728055531522863	0.41290158049323933	0.7394295517540312	0.2573069046780221	0.3526539795171089	0.9725960508420395	0.3336358581922134	0.31585690270158984	1.0587743209341003	0.314560608222507	0.28086884200630147	1.0859632943322497	0.26755603890448887	0.3881432132931806	1.0929223339529737
180	3.0508474576271185	0.5454907459593119	0.453054083800885	0.9096102666614447	0.5636344833540485	0.6111652905887641	1.3159301728186252	0.5869169910174223	0.7812519706274457	1.6672189566438376	0.5883367624854722	0.6705359570972127	1.7586900790722544	0.6518671119857318	0.7032076143926721	1.7443486368945265	0.5618233807853669	0.9025744324593521	1.7182052104696983	0.33100335842449263	0.4899251324128388	0.9357344811009782	0.3770301897899505	0.6756358968922144	1.347928982084265	0.40496578465526645	0.819274690010075	1.6996614083101584	0.43154483927130655	0.6685695128060163	1.770959547789507	0.37852652918336455	0.7185719007587268	1.7677639750787768	0.4217929600036521	0.8947311801358867	1.7414701477238026	0.40546563750266607	0.25723633414004	0.4389247316978635	0.3710618384462106	0.13336666277306153	0.23027192056322424	0.3891869515515535	0.13509605836324362	0.3569942239688049	0.5490438580366415	0.30756342661399233	0.5012363442098853	0.6289707629493084	0.3709099215133617	0.7081461965116149	0.5881301065349668	0.21770952471948277	0.8727733818350843	0.5146654110771564	0.12464271833031465	0.9650821713623827	0.5355656207322586	0.12529637529225315	0.9816538493917977	0.5712909813997962	0.18765844963738784	1.0030923754340435	0.25261209098157045	0.2809710972614585	0.5148356508362578	0.20915998268633257	0.4089791346011368	0.7390835429415463	0.2660943738270424	0.35720708070946766	0.9722727227602166	0.34042782500319235	0.320808655406382	1.055475068008849	0.32439165185343655	0.2899843697519754	1.0848025019794754	0.2788572041566407	0.3893313684171465	1.0922113604592167
181	3.067796610169492	0.5414001988295475	0.4582775449624278	0.9035890744187443	0.5638009145113262	0.6104385177035739	1.315845229322862	0.586940701286897	0.7812184383618832	1.6672181781857107	0.5900984085286223	0.6748535811514417	1.7588527042169158	0.6520459405404202	0.7069394430052545	1.7455903731048799	0.5618102687885564	0.9024852278747649	1.7181793001204753	0.3301875372683197	0.489250664637065	0.9298896582809527	0.37637736614545086	0.6737937915191868	1.3453227751477441	0.40535641059792266	0.8203400081222683	1.7010015993913017	0.43151582603741445	0.6701680528246371	1.7708581167598667	0.3785970283931511	0.7185465940378446	1.7677171339386226	0.4218138667220615	0.8945976252701342	1.7414203556317007	0.4054619073234085	0.25722917040509263	0.43895161780213415	0.37105484716642195	0.13241826955297187	0.2305636201008355	0.38719501207047746	0.1338244366231885	0.35688719867568075	0.5471352995138898	0.304342878138899	0.5020418174096651	0.6280897756482597	0.36416284210142164	0.7108711954584106	0.5833712124719733	0.21812101732593517	0.8833782760880313	0.496155247114882	0.13858348893496839	0.9742123762272716	0.5272775171657783	0.13002643015323778	0.9925795920522156	0.5592227354487429	0.19131355320059412	1.0153454781445497	0.2525731222211207	0.2812842309909156	0.5159513384123999	0.21088767028973354	0.4031612160836071	0.7389724412332564	0.2777977027243887	0.35302191104275	0.9718604626874875	0.3462275711831512	0.32500832358370824	1.0513897705082322	0.3343466345499232	0.30394718341137184	1.0836561171995536	0.2949329642482795	0.38041666960554493	1.090168902346884
